<svg xmlns="http://www.w3.org/2000/svg" version="1.1" width="600px" height="600px" viewBox="0 0 200 200" style="overflow:hidden!important;"><g id="svga-group-wrapper"><g id="svga-group-backs-single"><path id="SvgjsPath8569" d="M0 0h200v200H0V0z" fill="#ecf0f1" stroke-width="none" opacity="1"></path></g><g id="svga-group-humanwrap-move" transform="matrix(1,0,0,1,0,0)"><g id="svga-group-humanwrap"><g id="svga-group-hair-back-move" transform="matrix(1,0,0,1,0,0)"><g id="svga-group-hair-back"></g></g><g id="svga-group-humanbody-back"><path id="SvgjsPath8636" d="M86.5 107c0 18.8 2.7 50.3-8.1 58s-31.8 13.9-36.7 24.4-3.6 29.4-3.6 29.4h124.1s.6-23.1-4.2-30.4c-6.6-10.1-28.5-17.7-36.5-22.9-8.1-5.2-10.9-32.2-10.9-58.8l-24.1.3z" fill="#ffffff" stroke-width="none" opacity="1"></path></g><g id="svga-group-chinshadow-single"></g><g id="svga-group-humanbody-front"><path id="SvgjsPath8637" d="M163.4 220.1H37.2l-.3-.9c-.1-.5-1.3-19.7 3.6-30.3 3.4-7.3 13.6-12.4 23.5-17.4 5.1-2.5 9.9-5 13.6-7.5 8.6-6 8.1-29.8 7.7-47.1-.1-3.5-.1-6.8-.1-9.8v-1.3l26.7-.4v1.3c0 32 3.8 53.5 10.3 57.7 2.4 1.6 6 3.3 10.2 5.4 9.7 4.7 21.9 10.6 26.7 18 5 7.6 4.4 30.9 4.4 31.2l-.1 1.1zm-124.1-2.6h121.6c-.1-2.4-.6-23.2-4-28.4-4.4-6.7-16.2-12.5-25.6-17-4.3-2.1-8-3.9-10.5-5.5-9.8-6.3-11.4-38.8-11.5-58.6l-21.5.4c0 2.6.1 5.5.1 8.5.4 18.9.9 42.4-8.8 49.3-3.8 2.7-8.7 5.1-13.9 7.7-9.5 4.8-19.4 9.7-22.3 16.1-3.3 6.9-3.7 25.9-3.6 27.5z" fill="#000000" stroke-width="none" opacity="1"></path><path id="SvgjsPath8638" d="M76.8 173.7c4.8 2.3 10.4 3.9 15.7 2.9.4-.1.4-.7 0-.8-5.1-.9-10.2-1.4-15.2-3.2-.6-.2-1.1.8-.5 1.1zm31.5 2.4c2.4.3 4.9-.4 7.1-1.2 2.1-.8 4.3-1.7 5.8-3.4.5-.5-.1-1.2-.7-.9-2.1.9-3.9 2.3-6.1 3-2 .7-4.1 1-6.2 1.5-.6.1-.4.9.1 1z" fill="#000000" stroke-width="none" opacity="1"></path></g><g id="svga-group-clothes-single"><path id="SvgjsPath8768" d="M35.41 220.36s-1.42-21.88 2.61-29.95 8.07-12.34 37.02-25.39c0 0 6.64 8.54 23.49 8.78s24.92-8.78 24.92-8.78 16.61 7.59 20.65 10.2 12.1 6.88 16.14 12.34 3.28 32.8 3.28 32.8H35.41z" fill="#ffffff" stroke-width="none" opacity="1"></path><path id="SvgjsPath8769" d="M161.04 186.97c-3.42-4.63-9.47-8.33-13.89-11.03-.93-.57-1.79-1.09-2.51-1.56-4.05-2.62-20.09-9.96-20.77-10.27-.4-.18-.87-.08-1.16.24-.08.09-7.99 8.67-24.16 8.45-16.11-.23-22.66-8.32-22.72-8.4-.28-.36-.78-.49-1.2-.3-28.99 13.07-33.31 17.47-37.5 25.86-4.14 8.28-2.76 30.31-2.7 30.6.1.46.51.8.98.8h128.11c.53 0 .97-.41 1-.94.03-.52.73-27.77-3.48-33.45zm-1.6 1.19c.04.06.08.13.13.19-1.01-.51-2.1-.88-3.19-1.19.86-.59 1.46-.74 1.48-.74l-.03-.15c.58.6 1.13 1.24 1.61 1.89zm-13.33-10.51c3.13 1.91 7.1 4.34 10.25 7.19-9.73 7.23-8.39 19.6-8.69 34.52H52.95c-.07-8.38.38-22.45-5.39-33.83.15-.03.14-.28-.01-.3l-.2-.03c-.85-1.32-1.63-2.14-2.26-2.65 4.25-3.76 11.36-7.85 25.22-14.27 1.74 2.41 8.22 9.42 25.7 11.15 1.49.15 2.93.22 4.31.22 16.2 0 25.4-9.37 27.34-11.57 5.21 2.44 13.3 6.31 15.9 7.99.73.47 1.6 1 2.55 1.58zM38.72 191.27c3.12 1.49 6.63 2.74 10.09 2.79.03 0 .05-.02.07-.03.29 1.01.57 2.11.83 3.32-4.28-.75-8.11-1.54-12.12-3.34.31-.89.69-1.8 1.13-2.74zm4.15-6.52c.7.3 1.43.54 2.18.69.73.95 1.59 2.39 2.46 4.54-2.35-.62-4.67-1.22-6.94-2.12.66-1.07 1.41-2.09 2.3-3.11zm1.54-.08c-.39-.09-.78-.19-1.17-.32.12-.13.25-.27.38-.4.21.16.47.39.79.72zm34.58-15.06c-.41.39-.75.88-1.1 1.32-.21.27-.42.54-.62.82-.58-.36-1.11-.72-1.59-1.07.61-.7 1.29-1.34 1.99-1.95.41.28.84.57 1.32.88zm1.56.92c-.5.74-.94 1.52-1.38 2.29-.58-.3-1.11-.6-1.61-.91.25-.29.5-.57.75-.87.34-.4.71-.8.99-1.25.39.25.81.5 1.25.74zm2.65 1.27c-.55.7-1.04 1.45-1.54 2.19-.75-.31-1.44-.64-2.09-.97.49-.74.98-1.5 1.41-2.28.69.37 1.42.72 2.22 1.06zm1.91.75c-.46.73-.84 1.53-1.21 2.3-.64-.22-1.24-.45-1.82-.69.54-.71 1.11-1.42 1.6-2.16.45.18.93.37 1.43.55zm8.08 4.51c.28-.84.58-1.69.76-2.55.46.05.94.1 1.42.13-.3.85-.53 1.73-.73 2.61-.5-.05-.98-.12-1.45-.19zm-.37-.05c-1.69-.26-3.26-.57-4.71-.92.33-.78.67-1.59.93-2.4 1.4.33 2.92.59 4.55.78-.31.82-.54 1.69-.77 2.54zm-5.14-1.03c-.55-.14-1.09-.29-1.61-.44.4-.76.8-1.54 1.1-2.34.43.12.88.24 1.34.36-.32.79-.58 1.62-.83 2.42zm-2.03-.56c-.47-.14-.93-.29-1.37-.44.43-.75.87-1.52 1.2-2.31.41.14.82.28 1.26.41-.42.74-.77 1.54-1.09 2.34zm31.24-4.56c.41.71.82 1.43 1.26 2.12-.78.44-1.62.88-2.51 1.29-.35-.76-.73-1.52-1.1-2.27-.02-.03-.04-.04-.06-.06a30.4 30.4 0 0 0 2.41-1.08zm2.46-1.37c.28.33.56.67.84 1 .23.26.45.53.68.79-.71.49-1.49.99-2.33 1.48-.41-.71-.85-1.39-1.3-2.08.77-.4 1.47-.8 2.11-1.19zm1.89-1.26c.23.35.47.69.74 1.01.19.23.41.5.65.75-.4.32-.84.65-1.31.98-.25-.28-.53-.55-.78-.83l-.84-.87c.57-.36 1.08-.7 1.54-1.04zm1.65-1.3c.2.22.4.44.61.65.29.3.57.63.88.93-.37.34-.8.7-1.27 1.09-.2-.19-.41-.38-.58-.58-.31-.35-.6-.71-.88-1.09.49-.37.9-.71 1.24-1zm-8.61 5.23c.32.76.63 1.53.97 2.29-3.94 1.78-8.9 3.15-14.82 3.18.14-.95.19-1.93.04-2.86 5.62-.16 10.21-1.29 13.8-2.73 0 .03 0 .08.01.12zm9.4-5.94c.47.22 1.19.55 2.07.96-.26.27-.58.59-.98.96-.29-.32-.61-.62-.91-.93-.2-.2-.41-.4-.61-.61.17-.13.31-.27.43-.38zm-23.59 8.55c-.05.96-.05 1.91-.12 2.86-.73 0-1.48-.03-2.24-.08.12-.58.18-1.18.09-1.77-.02-.15-.27-.15-.29 0-.08.59-.14 1.16-.24 1.73-.36-.03-.72-.05-1.09-.08-.39-.04-.76-.08-1.14-.13.25-.87.48-1.74.63-2.63.91.06 1.85.11 2.82.12.55.02 1.06-.01 1.58-.02zm-22.73-6.28c-.76.54-1.41 1.21-2 1.94-.73-.55-1.34-1.08-1.83-1.56.74-.55 1.51-1.11 2.14-1.77.45.41 1.01.88 1.69 1.39zm-2.58-2.26c.17.18.4.41.66.65-.78.49-1.49 1.11-2.19 1.72-.45-.46-.81-.86-1.07-1.19.85-.38 1.71-.77 2.6-1.18zm-34.45 22.02c2.36 1.04 4.83 1.94 7.39 2.28.36.94.72 2 1.07 3.2-3.4-.85-6.65-1.49-9.9-2.83.01-.01.01-.03.02-.04.46-.92.93-1.78 1.42-2.61zm-4.15 13.45c2.58 1.32 5.43 2.39 8.29 2.63.19.02.22-.27.04-.32-2.87-.83-5.61-1.55-8.32-2.77.04-.89.13-1.91.32-3.02 4.1 2.29 9.02 4.24 13.74 4.2.14 0 .17-.21.03-.25-4.81-1.23-9.2-2.15-13.69-4.39.19-1.04.47-2.16.85-3.33 3.71 2 8.12 3.44 12.36 3.35 1.96 8.94 1.26 18.47 1.12 21.57H36.28c-.44-7.64-.12-16.52-.1-17.67zm113.41 17.66c.09-.98-.45-15.81.53-19.01 2.84 1.28 5.93 2.15 9.01 2.42.21.02.24-.31.05-.36-3.05-.79-6-1.63-8.96-2.64.15-.89.32-1.72.5-2.5 2.27.81 4.55 1.5 6.93 1.99.21.04.3-.26.09-.32-2.32-.65-4.63-1.34-6.9-2.13.22-.88.47-1.69.72-2.43 2.57.87 5.17 1.73 7.81 2.33.22.05.29-.25.09-.33-2.51-.99-5.13-1.74-7.73-2.47.27-.71.55-1.36.83-1.95 2.33.81 4.7 1.65 7.09 2.17.26.06.35-.29.11-.39-2.23-.92-4.62-1.58-6.97-2.23.39-.74.79-1.38 1.18-1.92 2.01.72 4.05 1.57 6.12 2.04.22.05.39-.28.16-.39-1.9-.87-3.98-1.43-5.98-2.06.55-.69 1.08-1.22 1.56-1.62 1.47.47 2.85 1.1 4.27 1.68 3.5 6.54 2.53 27.42 2.46 30.12" fill="#000000" stroke-width="none" opacity="1"></path></g><g id="svga-group-head" transform="matrix(1,0,0,1,0,0)"><g id="svga-group-ears-left-move" transform="matrix(1,0,0,1,0,0)"><g id="svga-group-ears-left"><path id="SvgjsPath9081" d="M66.8 82.4s-3.6-5.4-5.6-7.8-4.7-5-6.3-1.1c-1.6 3.9-2.5 11.6-1.6 16.9s6.8 11 9.6 11.2c2.8.2 5.7-7.6 5.9-10.3.3-2.8-.6-6.9-2-8.9z" fill="#ffffff" stroke-width="none" opacity="1"></path><path id="SvgjsPath9082" d="M52.2 90.4c-1-5.5.1-13.3 1.6-17.2.2-.6 1-2.4 2.9-2.6 2.1-.2 3.9 1.6 5.5 3.5 2.1 2.4 5.5 7.7 5.7 7.9 1.4 2.1 2.4 6.4 2.1 9.3-.2 2.4-2.4 8.8-5.2 10.6-.6.4-1.3.6-2 .5-3.6-.3-9.7-6.4-10.6-12zm8-15.4c-2.3-2.7-3.1-2.7-3.2-2.7-.1 0-.5.3-1 1.4-1.5 3.7-2.5 11.3-1.6 16.5.9 5.3 6.7 10.3 8.5 10.5 1.4-.2 4.4-6.1 4.7-9.5.2-2.6-.7-6.6-1.9-8.5 0 0-3.5-5.4-5.5-7.7z" fill="#000000" stroke-width="none" opacity="1"></path><path id="SvgjsPath9083" d="M57.9 78c2 1.3 3.6 3.5 4.3 6 0 .2-.2.2-.2.1 0 0 0-.1-.1-.1-.6-.5-1.2-1.1-1.9-1.1-1.1 0-1.1 1.4-.8 2.5.4 1.5 1.1 2.9 1.9 4.2.1.2-.1.3-.2.2-1.2-1.5-3-4.6-2.4-6.6.5-1.7 2-.9 3.1.1-.6-1.3-1.4-2.5-2.4-3.5-1.3-1.3-4.1-3.4-4.9-.9 0 .1-.2.1-.2-.1.1-2.5 2.6-1.7 3.8-.8z" fill="#000000" stroke-width="none" opacity="1"></path><path id="SvgjsPath9084" d="M61.7 92.6c1 2.5-1.2 3-2.5 1.9-2.1-1.7-3.5-5.5-3.5-8.4 0-.2.2-.2.2 0 .2 1.7.5 3.3 1.2 4.8.4.9 1 1.9 1.6 2.7.4.5.9.9 1.5 1.1 1.2 0 1.6-.7 1.3-2 0-.1.1-.2.2-.1z" fill="#000000" stroke-width="none" opacity="1"></path></g></g><g id="svga-group-ears-right-move" transform="matrix(1,0,0,1,0,0)"><g id="svga-group-ears-right"><path id="SvgjsPath9085" d="M133.2 82.4s3.6-5.4 5.6-7.8 4.7-5 6.3-1.1c1.6 3.9 2.5 11.6 1.6 16.9-.9 5.3-6.8 11-9.6 11.2-2.8.2-5.7-7.6-5.9-10.3-.3-2.8.6-6.9 2-8.9z" fill="#ffffff" stroke-width="none" opacity="1"></path><path id="SvgjsPath9086" d="M137.2 102.4c-.7 0-1.4-.1-2-.5-2.8-1.7-5-8.2-5.2-10.6-.3-2.9.7-7.1 2.1-9.3.1-.2 3.6-5.5 5.7-7.9 1.6-1.9 3.4-3.7 5.5-3.5 2 .2 2.7 2 2.9 2.6 1.6 3.9 2.6 11.8 1.6 17.2-.9 5.6-7 11.7-10.6 12zm-3-19.7c-1.2 1.9-2.1 5.8-1.9 8.5.3 3.4 3.2 9.4 4.7 9.5 1.9-.1 7.6-5.2 8.5-10.5.9-5.3-.1-12.8-1.6-16.5-.4-1.1-.9-1.4-1-1.4-.1 0-.9 0-3.2 2.7-1.9 2.3-5.4 7.7-5.5 7.7z" fill="#000000" stroke-width="none" opacity="1"></path><path id="SvgjsPath9087" d="M142.1 78c-2 1.3-3.6 3.5-4.3 6 0 .2.2.2.2.1 0 0 0-.1.1-.1.6-.5 1.2-1.1 1.9-1.1 1.1 0 1.1 1.4.8 2.5-.4 1.5-1.1 2.9-1.9 4.2-.1.2.1.3.2.2 1.2-1.5 3-4.6 2.4-6.6-.5-1.7-2-.9-3.1.1.6-1.3 1.4-2.5 2.4-3.5 1.3-1.3 4.1-3.4 4.9-.9 0 .1.2.1.2-.1-.1-2.5-2.6-1.7-3.8-.8z" fill="#000000" stroke-width="none" opacity="1"></path><path id="SvgjsPath9088" d="M138.3 92.6c-1 2.5 1.2 3 2.5 1.9 2.1-1.7 3.5-5.5 3.5-8.4 0-.2-.2-.2-.2 0-.2 1.7-.5 3.3-1.2 4.8-.4.9-1 1.9-1.6 2.7-.4.5-.9.9-1.5 1.1-1.2 0-1.6-.7-1.3-2 0-.1-.1-.2-.2-.1z" fill="#000000" stroke-width="none" opacity="1"></path></g></g><g id="svga-group-faceshape-wrap"><g id="svga-group-faceshape-single"><path id="SvgjsPath8619" d="M139.4 74.3s.2-8.5-1.2-16.1c-2-10.8-13.3-27.4-37.2-27.4S69.1 43.5 65.5 53c-3 8.1-3 21.3-3 21.3s-2 32.3-1 39.3c1 6.9 10.4 18.6 14.2 21 5.1 3.3 29.8 5.4 40.4 3.1s20.4-16.5 22.7-23.1c2.4-6.6.6-40.3.6-40.3z" fill="#ffffff" stroke-width="none" opacity="1"></path><path id="SvgjsPath8620" d="M104 140c-11.4 0-25-1.7-29-4.3-4.2-2.7-13.8-14.6-14.8-21.9-1-6.9.9-37.7 1-39.5 0-1 .1-13.7 3.1-21.8 5.8-15.5 17.8-23 36.7-23 10.9 0 20.5 3.4 27.7 10 5.5 5 9.6 11.9 10.8 18.5 1.4 7.5 1.2 15.6 1.2 16.3.1 2 1.7 34-.6 40.7-2.6 7.3-12.7 21.6-23.7 24-3.1.7-7.6 1-12.4 1zm-3-107.9c-17.7 0-28.9 7-34.3 21.3-2.9 7.8-2.9 20.8-2.9 20.9 0 .3-2 32.3-1 39 .9 6.5 10 17.8 13.7 20.1 4.6 3 29 5.2 39.4 2.9 9.9-2.2 19.5-15.7 21.8-22.3 1.8-5.2 1-30.5.5-39.8 0-.1.2-8.4-1.2-15.9-1.1-6-4.8-12.4-10-17-6.7-6-15.7-9.2-26-9.2z" fill="#000000" stroke-width="none" opacity="1"></path></g></g><g id="svga-group-mouth-single-move" transform="matrix(1,0,0,1,0,0)"><g id="svga-group-mouth-single"><path id="SvgjsPath8574" d="m112.44 121.55-.09.03c-3.77-2.31-7.86-4.67-12.44-4.42-4.58.25-7.93 4.2-12.5 4.25-.07 0-.12.03-.16.07-.05-.02-.11-.03-.16-.04-.6-.19-.86.75-.26.94.39.12.79.22 1.19.32 7.06 5.52 16.72 5.5 23.73.05.32-.08.64-.15.96-.25.59-.19.33-1.14-.27-.95zm-8.39.16c-.62-1.32-1.25-2.65-1.87-3.97.31.04.62.09.93.16.44 1.37 1 2.7 1.63 3.99a6.95 6.95 0 0 1-.69-.18zm1.29.33c-.66-1.3-1.22-2.64-1.67-4.02.23.06.45.12.67.18 0 .03-.01.05 0 .08.62 1.3 1.25 2.59 1.87 3.89-.29-.03-.58-.07-.87-.13zm1.44.19c-.62-1.28-1.23-2.56-1.85-3.84.28.09.55.19.82.29.5 1.23 1.08 2.42 1.71 3.59-.22-.01-.45-.02-.68-.04zm1.24.05c-.6-1.09-1.14-2.2-1.62-3.34.22.09.43.19.64.28 0 .03-.02.06 0 .1.42 1.02.92 2 1.49 2.95-.17 0-.34.01-.51.01zm1.06-.05c-.54-.87-1.01-1.78-1.42-2.72.25.12.51.25.76.38-.02.06-.03.13.01.2.38.68.73 1.38 1.05 2.1-.13.01-.27.02-.4.04zm.9-.11c-.29-.64-.59-1.28-.93-1.9.35.19.69.38 1.03.58-.01.05-.02.09.01.14.18.36.37.71.55 1.07-.21.04-.43.08-.66.11zm1.16-.22-.36-.69c.31.18.62.37.92.55-.18.05-.37.1-.56.14zm-9.49-4.22c0 .04-.01.07.01.11.59 1.25 1.18 2.5 1.77 3.74-.34-.12-.67-.27-1.01-.41-.56-1.16-1.12-2.33-1.68-3.49.3.01.61.03.91.05zm-1.43-.04v.04c.51 1.05 1.01 2.1 1.52 3.16-.27-.15-.53-.32-.8-.44-.64-.79-.87-1.84-1.4-2.71.22-.03.45-.04.68-.05zm-.29 2.67c-.52-.79-.99-1.62-1.39-2.49.17-.03.33-.07.5-.09 0 .03-.01.06.01.09.5.76.74 1.66 1.2 2.42-.1.02-.21.04-.32.07zm-1.88-2.39v.03c.4.88.88 1.73 1.41 2.54-.22.1-.44.21-.67.33-.49-.91-1-1.8-1.52-2.69.24-.08.48-.14.73-.2.01-.01.03-.01.05-.01zm-7.68 4.22-.62-.62c.17-.05.34-.1.5-.16.24.28.47.56.71.84-.2-.01-.39-.04-.59-.06zm1.23.09c-.01-.01 0-.03-.01-.04-.28-.34-.57-.67-.85-1.01.16-.06.33-.13.49-.2.28.44.58.86.89 1.27-.18 0-.35-.01-.52-.02zm1.13.03c-.37-.48-.72-.97-1.05-1.48.16-.07.32-.15.48-.23.37.59.79 1.14 1.25 1.67-.23.01-.46.04-.68.04zm1.29-.08c-.53-.57-1.01-1.19-1.42-1.85.16-.08.31-.16.46-.24 0 0 0 .01.01.01.49.68.97 1.36 1.46 2.03-.04.01-.08.01-.12.02-.13.02-.26.01-.39.03zm1.04-.14c-.52-.73-1.04-1.45-1.56-2.18l.51-.27c.4.86.91 1.65 1.52 2.38-.16.02-.32.05-.47.07zm1.02-.19a9.879 9.879 0 0 1-1.63-2.5c.17-.09.34-.17.51-.26.47.91 1.01 1.78 1.59 2.63-.17.05-.32.1-.47.13zm.95-.25c-.6-.87-1.15-1.77-1.64-2.71.15-.07.3-.14.44-.2.51.96 1.08 1.88 1.68 2.78-.02.01-.05.02-.07.03-.13.03-.27.06-.41.1zm.94-.34c-.6-.9-1.17-1.82-1.68-2.77.17-.07.34-.13.51-.2.54.91 1.06 1.83 1.56 2.76-.14.08-.27.14-.39.21zm-8.76.4c.01.01 0 .01.01.02l.33.33c-.36-.06-.71-.13-1.07-.21.25-.03.49-.08.73-.14zm-.02 1.29c1.53.28 3.09.39 4.66.25 2.19-.19 3.98-1.06 6.04-1.64 1.02-.29 1.77.36 2.72.72 1.02.39 2.08.66 3.16.82 1.63.24 3.25.18 4.84-.1a18.68 18.68 0 0 1-21.42-.05z" fill="#000000" stroke-width="none" opacity="1"></path></g></g><g id="svga-group-eyes-left-move" transform="matrix(1,0,0,1,0,0)"><g id="svga-group-eyes-left"><g id="svga-group-eyesback-left"></g><g id="svga-group-eyesiriswrapper-left"><g id="svga-group-eyesiriscontrol-left" transform="matrix(1,0,0,1,0,0)"><g id="svga-group-eyesiris-left"><path id="SvgjsPath8653" d="M77.3 84.3c-1.4 1.8-1.2 4.1.4 5.5 1.7 1.5 4.5 1.9 6.5.1 1-1 1.7-2.4 1.4-3.7-.1-.4-.3-.9-.5-1.3-.2-.5-.5-1-.9-1.4-2-1.7-5.2-1.3-6.9.8z" fill="#ffffff" stroke-width="none" opacity="1"></path><path id="SvgjsPath8654" d="M81.8 89c0-.1-.1-.1-.1-.2 0-.2 0-.3.1-.5s.4-.4.7-.4c.2 0 .3.1.5.2l.2.2c.3-.3.5-.8.5-1.3s-.2-.9-.5-1.2c-.2-.6-.7-1.1-1.4-1.3-.4-.1-.8-.1-1.2 0 .3.7 0 1.7-1 1.7-.3 0-.5-.1-.7-.2-.4.9-.2 2 .6 2.7.6.5 1.5.6 2.3.3zm-.7 2.4c-1.3 0-2.7-.5-3.6-1.4-1.7-1.5-1.8-4.1-.4-5.9.9-1.1 2.2-1.8 3.7-1.9 1.3-.1 2.6.3 3.5 1.1.4.4.8.9 1 1.4.2.4.4.9.6 1.3.3 1.3-.3 2.9-1.4 4-1.2 1-2.3 1.4-3.4 1.4zm-3.6-6.9c-1.3 1.6-1.1 3.8.3 5.1 1.6 1.4 4.2 1.8 6.1.1 1-1 1.5-2.4 1.3-3.5-.1-.4-.3-.8-.5-1.2v-.1c-.2-.5-.5-.9-.8-1.2-.8-.7-1.9-1.1-3.1-1-1.3.2-2.5.8-3.3 1.8z" fill="#000000" stroke-width="none" opacity="1"></path></g></g></g><g id="svga-group-eyesfront-left"><path id="SvgjsPath8697" d="M81 74.4c-6.9 0-12.5 5.6-12.5 12.5S74.1 99.4 81 99.4s12.5-5.6 12.5-12.5S87.9 74.4 81 74.4zm3.5 16.9c-2.2 1-5.4 1.3-7.7 1-2.3-.4-6-2.9-6-2.9s1.5-1 2.4-1.9 2.8-2.8 6.2-4.4c3.4-1.6 6.7.2 7.9 1.3s1.8 4 1.8 4-2.4 1.9-4.6 2.9z" fill="#ffffff" stroke-width="none" opacity="1"></path><path id="SvgjsPath8698" d="M89.8 85.6c-.1-.2-.5-.1-.5.1 0 .6.1 1.2.1 1.7-.4-1.5-1.2-3.3-2.7-4.3-2.6-1.8-8.2-2.2-12.5 2.3-3.6 3.9-5.6 4.3-6.4 4.1-.7-.1-1-.6-1-.6-.1-.2-.4-.4-.7-.2-.2.1-.4.4-.2.7 0 0 .5 1 1.7 1.2h.5c.8 0 1.6-.3 2.6-.9 0 .1.1.2.2.2.4.2.8.5 1.2.7-.8.3-1.6.9-1.9 2.1-.1.3.1.5.4.6h.1c.2 0 .4-.1.5-.4.5-1.7 2.1-1.6 2.1-1.6h.2c.2.1.5.2.7.3-.6.5-1.6 1.6-1.2 3 .1.2.3.4.5.4h.1c.3-.1.4-.4.3-.6-.4-1.2 1.3-2.3 1.3-2.3l.1-.1c1.4.5 2.9.8 4.5.8 2.8 0 5.8-1 8.7-3.8l.2-.2.1-.1c.1.5.1.9.1.9 0 .3.3.5.6.5.2 0 .4-.2.4-.5.6-.9.5-2.9-.1-4zm-1.5 2.6c-.2 0-.3.1-.5.4-5.8 5.6-12 3.5-16.2.7 1-.7 2.2-1.8 3.4-3.1 3.8-4.1 8.8-3.8 11.2-2.2 1.4.9 2.1 2.8 2.4 4.2-.1-.1-.2-.1-.3 0zm-1.9-5.7c-.1-.1-5.4-5-10.4-.6-4.5 4.1-6.5 5.7-6.6 5.7 0 0-.1.1-.2.1s-.1 0-.2-.1-.1-.3 0-.4c0 0 2-1.7 6.5-5.7 5.3-4.7 11 .5 11.1.6s.1.3 0 .4-.1.1-.2 0z" fill="#000000" stroke-width="none" opacity="1"></path></g></g></g><g id="svga-group-eyes-right-move" transform="matrix(1,0,0,1,0,0)"><g id="svga-group-eyes-right"><g id="svga-group-eyesback-right"></g><g id="svga-group-eyesiriswrapper-right"><g id="svga-group-eyesiriscontrol-right" transform="matrix(1,0,0,1,0,0)"><g id="svga-group-eyesiris-right"><path id="SvgjsPath8655" d="M115.8 84.3c-1.4 1.8-1.2 4.1.4 5.5 1.7 1.5 4.5 1.9 6.5.1 1-1 1.7-2.4 1.4-3.7-.1-.4-.3-.9-.5-1.3-.2-.5-.5-1-.9-1.4-2.1-1.7-5.3-1.3-6.9.8z" fill="#ffffff" stroke-width="none" opacity="1"></path><path id="SvgjsPath8656" d="M120.2 89c0-.1-.1-.1-.1-.2 0-.2 0-.3.1-.5s.4-.4.7-.4c.2 0 .3.1.5.2l.2.2c.3-.3.5-.8.5-1.3s-.2-.9-.5-1.2c-.2-.6-.7-1.1-1.4-1.3-.4-.1-.8-.1-1.2 0 .3.7 0 1.7-1 1.7-.3 0-.5-.1-.7-.2-.4.9-.2 2 .6 2.7.7.5 1.6.6 2.3.3zm-.7 2.4c-1.3 0-2.7-.5-3.6-1.4-1.7-1.5-1.8-4.1-.4-5.9.9-1.1 2.2-1.8 3.7-1.9 1.3-.1 2.6.3 3.5 1.1.4.4.8.9 1 1.4.2.4.4.9.6 1.3.3 1.3-.3 2.9-1.4 4-1.1 1-2.2 1.4-3.4 1.4zm-3.5-6.9c-1.3 1.6-1.1 3.8.3 5.1 1.6 1.4 4.2 1.8 6.1.1 1-1 1.5-2.4 1.3-3.5-.1-.4-.3-.8-.5-1.2v-.1c-.2-.5-.5-.9-.8-1.2-.8-.7-1.9-1.1-3.1-1-1.3.2-2.5.8-3.3 1.8z" fill="#000000" stroke-width="none" opacity="1"></path></g></g></g><g id="svga-group-eyesfront-right"><path id="SvgjsPath8699" d="M119 74.4c-6.9 0-12.5 5.6-12.5 12.5s5.6 12.5 12.5 12.5 12.5-5.6 12.5-12.5-5.6-12.5-12.5-12.5zm4 17.9c-2.3.4-5.5 0-7.7-1s-4.5-3.1-4.5-3.1.6-2.9 1.8-4 4.5-2.9 7.9-1.3 5.3 3.5 6.2 4.4 2.4 1.9 2.4 1.9-3.8 2.7-6.1 3.1z" fill="#ffffff" stroke-width="none" opacity="1"></path><path id="SvgjsPath8702" d="M133.6 88.8c-.2-.1-.5 0-.7.2 0 0-.3.5-1 .6-.8.1-2.8-.3-6.4-4.1-4.3-4.6-9.9-4.1-12.5-2.3-2.7 1.8-3.2 6.4-3.2 6.6 0 .3.2.5.5.6.3 0 .5-.2.6-.5 0 0 0-.4.1-.9l.1.1.2.2c2.9 2.8 5.9 3.8 8.7 3.8 1.5 0 3-.3 4.5-.8l.1.1s1.6 1.1 1.3 2.3c-.1.3.1.5.3.6h.1c.2 0 .4-.1.5-.4.4-1.4-.6-2.5-1.2-3 .2-.1.5-.2.7-.3.1 0 .1.1.2 0 .1 0 1.7 0 2.1 1.6.1.2.3.4.5.4h.1c.3-.1.4-.3.4-.6-.3-1.2-1.2-1.9-1.9-2.1.4-.2.8-.5 1.2-.7l.2-.2c1 .6 1.8.9 2.6.9h.5c1.2-.2 1.7-1.2 1.7-1.2.1-.5 0-.8-.3-.9zm-21.5-.2c-.3-.3-.4-.4-.5-.4h-.3c.4-1.4 1.1-3.2 2.4-4.2 2.3-1.6 7.3-1.9 11.2 2.2 1.2 1.3 2.4 2.4 3.4 3.1-4.3 2.7-10.5 4.8-16.2-.7zm1.3-6.1c.1-.1 5.4-5 10.4-.6 4.5 4.1 6.5 5.7 6.6 5.7 0 0 .1.1.2.1s.1 0 .2-.1.1-.3 0-.4c0 0-2-1.7-6.5-5.7-5.3-4.7-11 .5-11.1.6s-.1.3 0 .4c-.1.1.1.1.2 0z" fill="#000000" stroke-width="none" opacity="1"></path></g></g></g><g id="svga-group-facehighlight-single"></g><g id="svga-group-eyebrows-left-move" transform="matrix(1,0,0,1,0,0)"><g id="svga-group-eyebrows-left-rotate" transform="matrix(1,1.7453292144864463e-9,-1.7453292144864463e-9,1,1.3372952878398792e-7,-1.3852445590600837e-7)"><g id="svga-group-eyebrows-left"><path id="SvgjsPath8746" d="M66.31 78.71c1.61-1.61 4.74-3.82 8.03-3.97 3.29-.15 11.39 3.97 13.15 4.82 1.76.84 3.29 1.61 4.13.76.84-.84 1.3-1.76.15-2.9-1.15-1.15-12.23-5.12-16.43-4.82-4.22.3-9.03 6.11-9.03 6.11z" fill="#ffffff" stroke-width="none" opacity="1"></path><path id="SvgjsPath8747" d="M65.99 79.06c.19.17.47.16.65-.02 1.68-1.68 4.71-3.7 7.71-3.84 2.87-.14 9.97 3.33 12.3 4.47.25.12.46.23.62.3l.13.06c1.18.57 2.32 1.11 3.26 1.11.48 0 .91-.14 1.27-.5.46-.46 1.86-1.86.15-3.57-1.31-1.31-12.6-5.26-16.8-4.95-4.35.32-9.15 6.04-9.35 6.28-.15.21-.13.49.06.66zm9.86-6.01c.52 0 1.12.05 1.76.14l2.57 2.55c-.71-.28-1.43-.53-2.11-.75l-2.83-1.91c.04 0 .07-.01.11-.01.16-.01.33-.02.5-.02zm5.85 3.31-3.02-2.99c.73.14 1.51.31 2.3.51l3.23 3.59c-.78-.36-1.63-.74-2.51-1.11zm3.84-1.13c.73.25 1.42.49 2.06.73l2.2 4.07c-.28-.09-.59-.21-.91-.35l-3.35-4.45zm5.06 4.97-2.09-3.88c.54.22 1.03.42 1.45.61L91 80.15c-.12.04-.25.05-.4.05zm.92-.49-.78-2.39c.33.17.57.32.68.43.69.68.73 1.23.1 1.96zm-5.83-1.55-3.59-3.98c.8.22 1.6.46 2.39.71l3.18 4.23c-.16-.07-.36-.17-.6-.29-.38-.18-.85-.42-1.38-.67zm-14.84-3.07c1.1-.81 2.32-1.51 3.51-1.84l1.82 1.23c-.71-.15-1.35-.24-1.88-.21-1.17.05-2.34.36-3.45.82z" fill="#000000" stroke-width="none" opacity="1"></path></g></g></g><g id="svga-group-eyebrows-right-move" transform="matrix(1,0,0,1,0,0)"><g id="svga-group-eyebrows-right-rotate" transform="matrix(1,1.7453292144864463e-9,-1.7453292144864463e-9,1,1.3374696550272347e-7,-2.1054025012290367e-7)"><g id="svga-group-eyebrows-right"><path id="SvgjsPath8748" d="M133.69 78.71c-1.61-1.61-4.74-3.82-8.03-3.97-3.29-.15-11.39 3.97-13.15 4.82-1.76.84-3.29 1.61-4.13.76-.84-.84-1.3-1.76-.15-2.9 1.15-1.15 12.23-5.12 16.43-4.82 4.22.3 9.03 6.11 9.03 6.11z" fill="#ffffff" stroke-width="none" opacity="1"></path><path id="SvgjsPath8749" d="M134.06 78.41c-.2-.24-4.99-5.97-9.35-6.28-4.2-.31-15.49 3.64-16.8 4.95-1.71 1.71-.31 3.11.15 3.57.36.36.79.5 1.27.5.94 0 2.08-.54 3.26-1.11l.13-.06c.16-.08.37-.18.62-.3 2.33-1.14 9.43-4.61 12.3-4.47 3 .14 6.03 2.15 7.71 3.84a.478.478 0 0 0 .71-.64zm-9.42-5.34c.04 0 .07.01.11.01l-2.83 1.91c-.68.22-1.39.48-2.11.75l2.57-2.55c.64-.09 1.24-.14 1.76-.14.18 0 .35.01.5.02zm-8.86 4.4 3.23-3.59c.8-.2 1.57-.37 2.3-.51l-3.02 2.99c-.87.37-1.72.75-2.51 1.11zm-4.67 2.22c-.32.14-.62.26-.91.35l2.2-4.07c.64-.24 1.34-.49 2.06-.73l-3.35 4.45zm-2.11.46 1.05-3.22c.42-.19.91-.4 1.45-.61l-2.09 3.88c-.16 0-.29-.01-.41-.05zm-.42-2.4c.11-.11.35-.26.68-.43l-.78 2.39c-.63-.73-.59-1.28.1-1.96zm4.35 1.08c-.25.12-.45.22-.6.29l3.18-4.23c.79-.25 1.59-.49 2.39-.71l-3.59 3.98c-.53.25-1 .49-1.38.67zm12.76-4.56c-.53-.02-1.17.06-1.88.21l1.82-1.23c1.19.32 2.41 1.02 3.51 1.84-1.1-.46-2.27-.77-3.45-.82z" fill="#000000" stroke-width="none" opacity="1"></path></g></g></g><g id="svga-group-nose-single-move" transform="matrix(1,0,0,1,0,0)"><g id="svga-group-nose-single"><path id="SvgjsPath8738" d="M106.8 102.1c-.6-.5-1.4.3-.8.8 2.5 2.2-1.2 4.8-3.4 2.9-.3-.3-.7-.2-.9.1-1.3 1.8-3.9 1.8-5.4.3-.03-.05-.06-.1-.1-.2-.6-1-.7-2.1-.1-3.1.4-.7-.6-1.3-1-.6-.7 1.2-.8 2.6-.2 3.8-.9.5-1.9.6-2.9.1-1.4-.7-1.5-2.4-.4-3.5.5-.5-.3-1.4-.8-.8-1.3 1.3-1.5 3.4-.1 4.8 1.3 1.2 3.3 1.3 4.8.4 1.9 1.9 5 1.8 6.8-.1 1.4.9 3.4.9 4.7-.2 1.5-1.2 1.2-3.4-.2-4.7z" fill="#000000" stroke-width="none" opacity="1"></path></g></g><g id="svga-group-hair-front"><path id="SvgjsPath8849" d="M64.81 74.17c3.34-17.08 13.73-22.21 20.55-24.13 11.06-3.11 16.4-.58 16.4-.58 10.4-2.84 22.3 2.53 28.64 9.66 7.65 8.6 9.43 21.49 9.43 21.49 3.07-7.09 4.49-21.28 4.49-21.28s1.89.71 4.26.24c2.36-.47 3.31-4.97 5.91-6.38 2.6-1.42 2.13-5.67 1.89-11.59s-.95-3.55-3.31-8.04-1.89-5.91-7.09-10.88c-5.2-4.97-4.02-4.26-8.28-7.09-4.26-2.84-5.2 1.42-11.11 0-5.91-1.42-7.09 3.07-10.64 5.2-3.55 2.13-2.13 6.62-2.13 6.62-5.44-1.42-12.3.71-12.3.71-5.67-2.6-12.77-1.18-12.77-1.18s.71-4.49-.71-7.33-3.78-3.55-6.15-3.78c-2.36-.24-2.84-3.31-6.38-4.26-3.55-.95-1.66-1.18-16.55 6.38s-7.8 12.53-13.95 18.92-1.42 17.26 3.55 21.28 8.99 2.36 8.99 2.36c-1.18 9.69 6.15 21.04 6.15 21.04l1.11-7.38z" fill="#ffffff" stroke-width="none" opacity="1"></path><path id="SvgjsPath8850" d="m157.45 43.2-.07-1.64c-.16-3.93-.53-4.55-1.59-5.76-.46-.53-1.04-1.19-1.83-2.7a40.6 40.6 0 0 1-1.41-2.99c-.65-1.48-1.19-2.72-2.32-4.25a.57.57 0 0 0-.19-.26c-.79-1.02-1.84-2.19-3.36-3.64-1.3-1.25-2.21-2.13-2.89-2.81-2.08-2.05-2.25-2.22-5.52-4.39-2.66-1.77-4.39-1.15-6.07-.56-1.4.5-2.85 1.02-5.37.42-4.64-1.11-6.84 1.11-8.78 3.08-.84.85-1.63 1.65-2.61 2.24-2.56 1.53-3.04 4.22-2.87 6.2-4.62-.71-9.59.54-10.97.92-4.38-1.88-9.38-1.59-11.71-1.3.11-1.65.11-4.49-.94-6.59-1.7-3.39-4.6-4.1-6.94-4.33-.71-.07-1.19-.55-1.98-1.4-.94-1-2.1-2.25-4.25-2.83l-.58-.16c-2.54-.71-2.79-.58-9.28 2.8-1.86.97-4.25 2.22-7.4 3.82-9.73 4.93-10.53 8.92-11.3 12.78-.42 2.12-.82 4.13-2.93 6.32-2.3 2.39-3.39 5.57-3.17 9.22.36 5.8 3.78 11.08 6.8 13.53 3.57 2.89 6.74 3.08 8.51 2.86-.44 9.57 6.12 19.86 6.42 20.31l1.43 2.22 1.52-9.97C68.25 61.88 74.92 54.02 85.63 51c.13-.04.26-.07.39-.1-.2.2-.4.42-.58.64-1.02 1.25-1.71 2.82-1.65 4.45.12 3.21 3 5.48-.45 8.38-.62.52.27 1.4.88.88 2.47-2.07 2.39-4.47 1.34-7.3-1.86-5.03 1.76-7.28 5.92-8.19.78-.1 1.51-.18 2.19-.22-1.27.68-2.31 1.76-2.91 3.38-.48 1.3-.51 2.57-.06 3.87.84 2.46 2.84 3.31 2.92 6.34.07 2.61-1.52 4.94-2.84 7.06-.43.68.65 1.31 1.08.63 1.7-2.71 3.56-5.83 2.86-9.18-.32-1.56-1.37-2.56-2.09-3.92-3.65-6.95 4.52-8.73 9-7.04.36.14.62-.07.71-.35 10.12-2.58 21.35 2.75 27.29 9.43 7.35 8.27 9.17 20.84 9.19 20.96l.49 3.53 1.42-3.27c2.62-6.05 4.03-16.88 4.44-20.43.88.16 2.15.26 3.58-.03 1.66-.33 2.67-1.93 3.64-3.48.76-1.21 1.54-2.46 2.55-3.01 2.93-1.55 2.75-5.44 2.51-10.83zm-5.27-9.17c.79 1.49 1.41 2.28 1.89 2.84.02.94.04 1.89-.04 2.82-.32 3.91-.98 5.31-4.22 7.26-2.72 1.64-3.69 1.87-6.52.64-1.96-.85-3.54-2.29-5.04-3.8-2.94-2.97-5.23-6.17-8.98-8.19a.702.702 0 0 0-.33-.07c.26-.27.31-.72-.13-.9-2.25-.95-3.87-3.29-3.04-5.8.55-1.68 2.05-2.69 3.46-3.59 1.01-.64 2.06-1.22 3.07-1.85-1.45 4.34.87 8.14 4.18 10.89 2.16 1.79 6.51 6.7 9.63 5.97 3.1-.72 3.89-5.6 4.04-9.03.05-.43.08-.87.1-1.31.15.32.29.65.45 1 .4.88.84 1.89 1.48 3.12zm-18.23 28.12c2.54-2.98 4.28-6.4 5.13-10.19.18 1.06.54 2.07 1.04 3.01a47.23 47.23 0 0 1-3.41 12.15c-.77-1.65-1.68-3.34-2.76-4.97zm5.13-13.71a5.063 5.063 0 0 1-3.09-2.21c.06-.29-.09-.49-.32-.59-.43-.92-.59-1.99-.41-3.08 1.36 1.49 2.73 2.99 4.22 4.23-.18.55-.3 1.1-.4 1.65zM118 49.64c5.77-1.9 11-4.86 15.63-8.84.21.22.42.45.63.67-.03.05-.07.11-.09.18-.45 1.69-.24 3.33.46 4.69-1.38 3.59-3.63 6.7-6.61 9.12A34.637 34.637 0 0 0 118 49.64zm31-22.04c-.03 1.14-.11 2.27-.28 3.41-.08.64-.19 1.27-.33 1.9-1.06.34-2.12.67-3.17 1.01-.93-.2-2.03-1.98-2.49-2.62-.88-1.25-2.09-2.96-2.35-4.46-.51-2.94 1.1-3.99 3.54-4.74.4.39.84.81 1.36 1.31 1.86 1.77 2.95 3.05 3.72 4.19zm-6.09-6.49c-1.92.66-3.84 1.71-4.03 3.97-.23 2.77 2 6.08 3.68 8.07 1.12 1.33 3.33 3.15 5.21 2.51-.41.61-.95 1.18-1.67 1.7-2.29 1.65-2 1.19-3.84-.19-.99-.74-1.98-1.5-2.96-2.26-2.38-1.84-4.84-3.66-5.89-6.64-1.66-4.71 2.47-9.12 6.96-9.56.57.47 1.09.99 2 1.88.17.15.35.33.54.52zm-10.05-5.03c1.54-.55 2.46-.88 4.29.34.78.52 1.36.91 1.84 1.24-2.16.46-4.08 1.55-5.39 3.29-2.68 2.28-7 3.33-8.66 6.64a5.714 5.714 0 0 0-.6 3.08c-3.06-5-1.39-11.25 3.98-13.81 1.97.13 3.37-.36 4.54-.78zM88.95 27.92c.07-.01 6.84-1.33 12.15 1.11l.35.16.37-.11c.07-.02 6.64-2.03 11.75-.7l1.32.34c-3.52-.03-6.99.47-10.44 1.56a.61.61 0 0 0-.36.3c-.01-.24-.13-.49-.42-.59a35.377 35.377 0 0 0-14.83-2.05l.11-.02zm-1.18-1.14-.2 1.26c-.71.08-1.42.17-2.13.29.02-.06.03-.12.05-.18 1.6-2.49 2.32-5.36 1.4-8.54.09.15.18.28.26.44 1.26 2.52.62 6.69.62 6.73zM74.65 12.37l.61.17c1.59.42 2.46 1.36 3.3 2.26.86.92 1.75 1.88 3.24 2.03 1.49.15 3 .48 4.19 1.63-.36.03-.69.31-.53.75.71 1.95.73 3.75.29 5.41-.11-.98-.35-1.94-.76-2.78-1.26-2.57-4.03-3.31-6.64-3.79-.15-.21-.28-.42-.44-.63-2.34-2.93-5.53-4.04-8.61-3.65 3.6-1.88 3.86-1.82 5.35-1.4zm-15.24 6.48c1.3-.66 2.47-1.26 3.54-1.81-.3.32-.6.65-.87 1.01-1.4 1.83-3.08 4.04-4.6 6.45-.11.07-.21.17-.27.32-.04.1-.08.19-.12.29-.52.84-1 1.71-1.45 2.58a10.912 10.912 0 0 1-6.8 4.14c.13-.53.24-1.06.34-1.58.71-3.55 1.38-6.91 10.23-11.4zm8.27 43.97c-1.18 2.18-2.14 4.61-2.9 7.25-3.28-5.67-4.31-12.04-2.93-18.54.08-.12.16-.23.23-.35.42-.69-.66-1.32-1.08-.63-.02.03-.03.05-.05.07-.13.07-.23.19-.27.38 0 .01-.01.03-.01.04-2.9 4.32-8.01 5.99-12.86 4.18-.91-2.93-.88-5.95.15-8.83 3.28 4.24 9.37 6.25 15.11 3.01-.28 4.95 1.31 9.63 4.61 13.42zM48.4 44.9a.677.677 0 0 0-.18-.29c-1.73-2.86-2.13-6.57-.22-10.24.04-.09.07-.17.07-.25.14-.33.27-.65.38-.97 2-.26 3.85-.99 5.44-2.1-2.67 5.41-4.93 13.48-1.17 17.68-1.75-.86-3.25-2.2-4.32-3.83zm-2.77-7.22c-.4 2.72.21 5.31 1.49 7.48-1.19 2.85-1.52 5.85-.92 8.82-1.61-2.43-2.89-5.55-3.08-8.7-.19-3.07.66-5.62 2.51-7.6zm18.2 36.3-.7 4.59c-2.01-3.79-5.4-11.34-4.6-17.94l.21-1.7-1.58.65c-.03.02-3.52 1.39-7.98-2.22-.23-.19-.47-.4-.7-.63 4.31 1.16 8.69-.03 11.76-3.19-.82 6.39.57 12.66 4.09 18.17-.18.76-.35 1.5-.5 2.27zm21.26-24.9c-3.24.91-6.13 2.25-8.67 3.97a50.465 50.465 0 0 0-7.87-10.47c-.56-.58-1.45.31-.88.88 3.03 3.09 5.59 6.54 7.72 10.3a26.214 26.214 0 0 0-4.85 4.74c-2.73-4.01-3.81-8.72-3.17-13.59.11-.79-1.15-.79-1.25 0-.7 5.28.61 10.32 3.63 14.61-.49.68-.95 1.4-1.39 2.13-3.21-3.82-4.63-8.65-3.91-13.64.11-.79-1.09-1.13-1.21-.33-.03.17-.04.35-.06.52a.57.57 0 0 0-.55.02c-2.01 1.17-4.07 1.62-6.02 1.51a.46.46 0 0 0-.17-.09c-5.65-1.86-5.12-8.26-3.22-13.79-.04 1.19.08 2.37.44 3.5 1.97 6.3 9.3 7.29 13.82 3.16.59-.54-.29-1.43-.88-.88-4.11 3.76-10.52 2.51-11.93-3.26-.65-2.68.15-5.52 1.27-7.95 1.59-3.46 3.93-6.79 6.01-9.97 3.57-5.46 10.12-8.15 14.92-2.16 3.98 4.96 2.24 11.15-1.26 15.71-.24-.08-.51-.02-.64.29a9.343 9.343 0 0 1-3.72 4.35c2.12-3.39 3.36-7.7 2.33-11.62-.79-3.02-3.43-4.91-6.48-3.44-4.86 2.33-6.35 18.5.35 17.51.12.07.26.11.42.09 3-.41 5.63-2.12 7.27-4.6.08.21.26.38.56.37 9.44-.34 18.18 3.62 24.06 10.92-1.37-.26-3.34-.46-5.91-.32-6.83-4.45-14.44-6.85-22.59-7.17-.8-.03-.8 1.22 0 1.25 7.38.29 14.2 2.34 20.48 6.1-1.94.23-4.15.65-6.65 1.35zm-17.1-9.21a.587.587 0 0 0-.46-.07c-3.6.87-3.27-6.34-3.15-7.99.09-1.21.22-2.47.61-3.63.83-2.44 4.34-6.01 6.87-2.21 2.5 3.76-.17 10.04-2.45 13.17-.1.14-.12.27-.1.39-.43.15-.87.26-1.32.34zm35.22 8.25c7.13-7.49 17.42-8.1 27.26-7.71.8.03.8-1.22 0-1.25-10.43-.41-21.44.39-28.77 8.73-.07.08-.11.17-.14.26-6.11-8.21-15.48-12.78-25.72-12.46 3.81-4.46 6.06-10.83 3.37-16.21 2.05.45 3.99 1.21 4.85 3.38.59 1.48.65 3.26.24 4.86-1.65 2.49-4.24 4.56-6.72 6.19-.58.38-.19 1.24.36 1.18.08.19.26.33.54.3 7.89-.65 15.36 1.09 22.15 5.19.69.42 1.32-.66.63-1.08-6.65-4.01-14.01-5.85-21.73-5.42.71-.51 1.42-1.06 2.1-1.65.14.13.32.21.55.17 6.91-1.14 13.7-.23 20.08 2.68.17.08.33.07.48.02.17.24.48.39.82.23 6.18-3.03 12.82-3.71 19.5-2.03.78.2 1.11-1.01.33-1.21-6.94-1.75-13.84-1.03-20.28 2.07a.671.671 0 0 0-.22-.17c-6.39-2.92-13.07-3.89-19.98-2.94.15-.15.3-.3.45-.46.26.23.73.29.99-.09.29-.42.53-.9.73-1.39.14.16.34.27.6.22 6.02-1 11.91-.43 17.64 1.65.34.12.58-.05.69-.3.01.37.3.74.76.6 5.05-1.59 10.16-1.96 15.37-1.06.79.14 1.12-1.07.33-1.21-1.74-.3-3.48-.46-5.2-.49l-.51-1.62c-.01-.04-1.15-3.76 1.69-5.46 1.2-.72 2.12-1.65 3.01-2.55 1.87-1.89 3.35-3.39 6.88-2.54h.01c-5.01 3.39-6.44 10.05-2.73 15.34.27.38.73.32 1 .09.49 1.42 1.53 2.65 2.93 3.42-9.15-2.01-18.38-.06-25.94 5.58-.64.48-.02 1.56.63 1.08 7.61-5.67 16.81-7.54 26.03-5.21.2.05.37.01.5-.09 1.43.79 2.73 1.91 3.98 3.15-4.84 4.17-10.31 7.15-16.44 8.97a.66.66 0 0 0-.22.12c-4.15-1.28-8.58-1.7-12.88-.88zm25.76 8.17c2.85-2.38 5.04-5.29 6.5-8.69.78.9 1.82 1.59 3.04 1.96-.15.06-.28.18-.31.41-.64 4.16-2.3 7.9-4.98 11.11-.64-.9-1.33-1.78-2.08-2.62-.66-.75-1.39-1.47-2.17-2.17zm11.13 20.58c-.52-2.16-1.38-5.09-2.7-8.22 1.78-3.89 3.03-7.93 3.74-12.14.63.79 1.38 1.49 2.25 2.09l-.06.64c-.02.11-1.06 10.37-3.23 17.63zm13.91-24.56c-1.47.8-2.44 2.34-3.29 3.7-.78 1.24-1.52 2.42-2.34 2.58-.84.17-1.61.16-2.23.1-.04-.02-.06-.05-.11-.07-3.87-1.49-6.02-5.01-5.84-8.86.31-.18.35-.67.09-.96.06-.4.15-.79.25-1.19 1.93 1.38 4.08 2.27 6.66 2.16 5.8-.24 7.6-5.55 8.01-10.52.07.57.13 1.32.17 2.38l.07 1.65c.21 4.67.36 8.04-1.44 9.03z" fill="#000000" stroke-width="none" opacity="1"></path></g><g id="svga-group-glasses-single-move" transform="matrix(1,0,0,1,0,0)"><g id="svga-group-glasses-single"><path id="SvgjsPath8778" d="M94.7 85.4c-1-4.4-4.1-10.5-13.6-10.8s-13.8 6.8-14.5 13.2 4.3 12.2 7.7 13.7 10.3 2.9 15.6-1.8c5.3-4.9 5.8-10 4.8-14.3z" fill="#000000" stroke-width="none" opacity="1"></path><path id="SvgjsPath8779" d="M104.7 85.4c1-4.4 4.1-10.5 13.6-10.8s13.8 6.8 14.5 13.2-4.3 12.2-7.7 13.7c-3.4 1.5-10.3 2.9-15.6-1.8-5.3-4.9-5.7-10-4.8-14.3z" fill="#000000" stroke-width="none" opacity="1"></path><path id="SvgjsPath8780" d="m69.7 88.9 12-10 .1.2-12 10-.1-.2zm6.8 10.6 12-10 .1.2-12 10-.1-.2zm-1.1-4.4 16.3-13.6.1.2-16.2 13.5-.2-.1zm-4.7-1.2 16-13.3.1.2-16 13.2-.1-.1z" fill="#ffffff" stroke-width="none" opacity="1"></path><path id="SvgjsPath8781" d="m107 88.9 12-10 .1.2-12 10-.1-.2zm6.8 10.6 12-10 .1.2-12 10-.1-.2zm-1.1-4.4L129 81.5l.1.2-16.3 13.6-.1-.2zm-4.8-1.2 16-13.3.1.2-16 13.3-.1-.2z" fill="#ffffff" stroke-width="none" opacity="1"></path><path id="SvgjsPath8782" d="M135.6 86.7c-.1-.1-1.5-.1-2.2-.1-1.1-6.3-5.6-13-15-12.7-9.3.3-12.7 6-13.9 10.2-.5-.5-1.2-.9-1.6-1-.6-.1-4.2-.2-5.7-.1-1.5.2-1.9 1.1-1.9 1.1l-.1.1C94 80.1 90.7 74.3 81.3 74c-9.4-.3-13.9 6.4-15 12.7-.8 0-2.1 0-2.2.1-.2.2 0 1.8 0 1.8h2c-.2 6.1 4.5 11.8 8.2 13.4.9.4 3.7 1.5 7.1 1.5 2.9 0 6.2-.8 9.2-3.4 4.6-4.2 6.2-9 5-14.8.1-.2.2-.3.2-.4.2-.4 1-1 1.6-1.1s4.1 0 4.7 0 1.2.4 1.6.7c.2.2.4.5.5.8-1.2 5.8.4 10.6 5 14.8 2.9 2.7 6.3 3.4 9.2 3.4 3.4 0 6.3-1.1 7.1-1.5 3.7-1.6 8.4-7.4 8.2-13.4h2c-.1-.1.1-1.7-.1-1.9zM89.5 99.1c-5.8 5.3-13.4 2.4-14.9 1.7-2.9-1.3-8-6.9-7.3-13 .7-5.8 4.5-12.6 13.3-12.6h.5c8.9.3 12 5.8 13 10.3 1.1 5.3-.3 9.8-4.6 13.6zm35.3 1.7c-1.5.6-9.1 3.5-14.9-1.7-4.2-3.8-5.8-8.3-4.6-13.6 1-4.5 4.1-10 13-10.3h.5c8.7 0 12.6 6.7 13.3 12.6.8 6.1-4.3 11.7-7.3 13z" fill="#ffffff" stroke-width="none" opacity="1"></path><path id="SvgjsPath8783" d="M81.1 75c-9.2-.3-13.3 6.8-14 12.8-.7 6.2 4.5 11.9 7.5 13.2.8.3 3.5 1.4 6.7 1.4 2.7 0 5.7-.7 8.4-3.2 4.3-3.9 5.8-8.4 4.7-13.8-1.1-4.5-4.2-10.1-13.3-10.4zm8.2 23.9c-5.7 5.2-13.2 2.3-14.7 1.7-2.9-1.2-7.9-6.8-7.2-12.8.7-5.7 4.5-12.4 13.1-12.4h.5c8.8.3 11.8 5.7 12.8 10.1 1.2 5.3-.3 9.7-4.5 13.4zm46.4-12.4c-.1-.1-.2-.2-2.2-.2-1.2-6.4-5.8-13-15.2-12.7-9 .3-12.6 5.5-14 10-.5-.4-1-.7-1.4-.8-.6-.1-4.2-.2-5.8-.1-1.1.1-1.6.5-1.9.8-1.4-4.5-5-9.7-14-9.9-9.4-.3-14 6.3-15.2 12.7-2 0-2.1.1-2.2.2-.1.1-.3.2-.1 2v.2h2c-.1 6.3 4.8 11.9 8.3 13.4.8.3 3.7 1.5 7.2 1.5 3.6 0 6.7-1.2 9.3-3.5 4.7-4.2 6.3-9.1 5.1-14.9.1-.1.1-.2.2-.3.2-.3.9-.9 1.4-1 .6-.1 3.9 0 4.6 0 .6 0 1.2.4 1.5.7.1.1.2.3.4.7-1.2 5.8.4 10.7 5.1 14.9 2.6 2.3 5.7 3.5 9.3 3.5 3.5 0 6.4-1.2 7.2-1.5 3.5-1.5 8.4-7.2 8.3-13.4h2v-.2c.4-1.8.2-2 .1-2.1zm-.3 1.8h-2.1v.2c.2 6.2-4.6 11.8-8 13.2-.8.3-3.6 1.5-7.1 1.5-3.5 0-6.5-1.1-9-3.4-4.6-4.1-6.2-8.9-4.9-14.6V85c-.2-.4-.4-.7-.6-.9-.4-.3-1.1-.8-1.8-.8-.4 0-1.8-.1-3.1-.1-.8 0-1.4 0-1.7.1-.7.1-1.5.8-1.7 1.2-.1.1-.2.3-.3.4v.2c1.2 5.7-.4 10.5-4.9 14.6-2.5 2.2-5.5 3.4-9 3.4-3.4 0-6.3-1.1-7.1-1.5-3.4-1.5-8.2-7.1-8-13.2v-.2H64c-.1-.6-.1-1.2 0-1.4.2 0 .8-.1 2.1-.1h.2v-.2c1.1-6.2 5.6-12.8 14.8-12.5 9 .3 12.4 5.6 13.7 10.1l.1.5.3-.5s.4-.8 1.8-.9c1.6-.2 5.2-.1 5.7.1.4.1 1.1.5 1.5.9l.3.3.1-.4c1.3-4.4 4.7-9.7 13.7-10 9.3-.3 13.7 6.3 14.8 12.5v.2h.2c1.3 0 1.9 0 2.1.1v1.4zM118.9 75h-.5c-9.1.3-12.2 5.8-13.2 10.5-1.2 5.4.3 9.9 4.7 13.8 2.7 2.4 5.8 3.2 8.4 3.2 3.2 0 5.9-1 6.7-1.4 3-1.3 8.2-7 7.5-13.2-.8-6-4.7-12.9-13.6-12.9zm5.9 25.6c-1.4.6-8.9 3.5-14.7-1.7-4.2-3.8-5.7-8.1-4.5-13.3 1-4.5 4-9.8 12.8-10.1h.5c8.6 0 12.4 6.7 13.1 12.4.6 6-4.4 11.5-7.2 12.7z" fill="#000000" stroke-width="none" opacity="1"></path></g></g></g></g></g><rect id="svga-credit-rect" width="200" height="15" x="0" y="185" fill="#ecf0f1" opacity="0.5" style="display: none;"></rect><text id="svga-credit-text" font-family="Avenir Next, Roboto, Helvetica, Arial, sans-serif" font-size="10px" text-anchor="start" font-weight="400" size="10px" anchor="start" weight="400" fill="#333333" x="33.311859130859375" y="182.50515484809875" style="display: none;"><tspan id="SvgjsTspan8568" dy="13" x="33.311859130859375">Created on AvatarMaker.com</tspan></text></g><defs id="SvgjsDefs8520"></defs></svg>